<?xml version="1.0" encoding="utf-8"?><!-- Generator: Adobe Illustrator 17.0.2, SVG Export Plug-In . SVG Version: 6.00 Build 0)  --><!DOCTYPE svg PUBLIC "-//W3C//DTD SVG 1.1//EN" "http://www.w3.org/Graphics/SVG/1.1/DTD/svg11.dtd"><svg xmlns="http://www.w3.org/2000/svg" xmlns:xlink="http://www.w3.org/1999/xlink" viewBox="0 0 50 50" width="50px" height="50px"><g><g><path d="M36.155,3c1.99,0,3.958,0.968,6.016,2.959c4.099,3.966,1.306,15.667-9.384,26.763c-7.003,7.269-15.465,11.966-21.558,11.966c-2.06,0-3.671-0.548-4.788-1.628C4.126,40.82,3,38.673,3,36.498c0-6.718,5.193-10.162,10.215-13.493c2.092-1.387,4.067-2.698,5.511-4.196c1.47-1.526,2.603-3.522,3.803-5.635C25.368,8.172,28.304,3,36.155,3 M36.155,1C23.63,1,21.907,12.624,17.285,17.421C12.733,22.147,1,25.621,1,36.498c0,2.518,1.143,5.186,4.05,8c1.537,1.487,3.669,2.191,6.178,2.191c6.437,0,15.346-4.636,22.998-12.579C44.861,23.071,49.04,9.824,43.561,4.522C40.968,2.012,38.496,1,36.155,1L36.155,1z"/></g></g><path fill="none" stroke="#000000" stroke-width="2" stroke-linecap="round" stroke-linejoin="round" stroke-miterlimit="10" d="M42.283,4.566c10.125,10.02,8.35,24.192-2.285,35.231s-25.954,12.367-35.509,2.79"/><path d="M27.153,16.901c-0.827,2.283-1.535,4.993-3.589,7.126c-1.984,2.059-5.404,3.548-7.51,4.594c-5.419,2.691-7.433,8.442-7.036,12.316c1.189-4.37,4.668-8.112,8.229-9.852c2.342-1.146,6.295-2.444,8.82-5.065c2.688-2.791,3.132-6.067,4.063-8.542c1.264-3.355,6.042-7.231,9.808-9.417C36.568,7.962,29.697,9.878,27.153,16.901z"/></svg>