<?xml version="1.0" encoding="UTF-8"?>
<svg id="Layer_1" data-name="Layer 1" xmlns="http://www.w3.org/2000/svg" viewBox="0 0 85.55 65.09">
  <defs>
    <style>
      .cls-1 {
        fill: #62cbca;
        stroke-width: 0px;
      }
    </style>
  </defs>
  <path class="cls-1" d="M78.58,45.27c-.12-.06-.4-.16-.63-.33-.55-.41-.62-.79-.17-1.3.29-.33.72-.79,1.04-.75.53.05.73.59.81,1.18.12.89-.1,1.29-1.05,1.19M51.28,60.52c17.77-7.53,25.49-19.36,31.01-27.74.35-.54,1.07-.69,1.62-.34l.4.25c-6.36,7.32-9.67,20.11-33.02,27.83M67.79,38.26c-2.09.61-4.16,1.23-6.3,1.64-1.78.34-3.53.86-5.3,1.25-1.02.23-1.96.79-2.93,1.23-.24.11-.38.2-.59-.05-.33-.4.03-.57.24-.66.8-.36,1.6-.8,2.45-.96,1.47-.27,2.84-.72,4.15-1.45.65-.36,1.36-.69,2.19-.63.38.03.8-.18,1.17-.35,3.3-1.51,6.86-2.07,10.35-2.88.45-.11.95,0,1.64,0,.32.08.86.16,1.34.36.47.2.48.76.02.98-.47.22-1.03.54-1.49.45-2.46-.47-4.69.39-6.95,1.06M68.65,45.38c-.34.19-.78.22-1.17.31-.39.09-.87.07-1.17.29-.9.66-1.87.61-2.88.51-.46-.09-.92-.18-1.38-.27.42-.22.82-.48,1.26-.64,1.37-.5,2.75-.98,4.13-1.45.27-.09.57-.18.85-.15.46.04,1.24.09,1.3.29.16.61-.5.86-.93,1.1M67.63,41.63c-2.71.74-5.41,1.53-8.11,2.33-1.35.4-2.58,1.15-4.03,1.23-.35.02-.69.12-1.05.18-.16-.11-.29-.21-.42-.3.1-.05.2-.12.31-.16,1.73-.58,3.49-1.09,5.18-1.76,1.58-.63,3.3-.83,4.75-1.89.75-.55,1.88-.61,2.85-.83,1.59-.37,3.19-.71,4.8-1.02.57-.11,1.17-.08,1.76-.07.14,0,.4.2.39.27-.04.21-.13.51-.29.58-.48.2-1.01.47-1.5.43-1.65-.1-3.11.59-4.63,1M41.26,43.44c-.32.13-.68.18-1.02.26-.04,0-.14-.04-.14-.08-.02-.08-.02-.23.02-.25.36-.2.72-.42,1.1-.57,2.69-1.07,5.39-2.1,8.07-3.19,1.26-.51,2.5-1.09,3.73-1.68,1.33-.64,2.68-1.22,4.14-1.48.17-.03.36-.06.5-.16,2.02-1.5,4.53-1.64,6.8-2.42,2.67-.92,5.48-1.36,8.28-1.7,1.47-.18,3.06-.62,4.51.25.14.08.25.19.47.36-.21.21-.33.46-.52.51-.56.16-1.14.31-1.72.36-1.52.15-3.06.21-4.58.39-3.21.38-6.42.82-9.46,2.03-4.62,1.85-9.34,3.4-14.04,5-2.08.71-4.09,1.58-6.14,2.36M19.28,46.42c-2.41.5-4.82,1.03-7.25,1.44-1.92.33-3.84.66-5.81.52-.76-.05-1.54.16-2.29.09-.69-.06-1.38-.3-2.04-.54-.2-.07-.42-.43-.4-.63.03-.24.3-.61.49-.64.51-.06,1.1-.1,1.56.1.92.4,1.82.49,2.77.26.28-.07.59-.09.88-.06,1.56.19,3.06-.16,4.56-.52,1.38-.33,2.78-.46,4.19-.55,1.11-.08,2.24-.2,3.3-.5,4.59-1.3,9.21-2.49,13.65-4.29,2.84-1.15,5.74-2.15,8.6-3.24,2.97-1.14,5.92-2.33,8.9-3.47,4.85-1.86,9.76-3.5,14.78-4.85,3.13-.84,6.36-1.12,9.53-1.72,1.44-.27,2.88-.21,4.27.07.9.18,1.75.66,2.57,1.11.5.28.37.92-.2,1.07-.33.09-.71.09-1.06.06-.96-.06-1.92-.16-2.94-.25-2.27-.41-4.54-.17-6.83.42-2.85.73-5.78,1.14-8.61,1.91-5.42,1.48-10.7,3.39-15.89,5.53-2.58,1.06-5.16,2.13-7.77,3.11-6.19,2.3-12.5,4.21-18.97,5.56M35.68,33.31c.1-.81.22-1.61.37-2.39.16-.82-.06-1.78-.46-2.79-.07-.17-.31-.49-.37-.5-.19,0-.41.04-.49.18-.08.15-.05.43,0,.67.34,2.1-.17,3.71-.44,5.44-.07.44-.68.55-1.12.69-.19.06-.56-.18-.85-.28-.02-.28-.08-.57-.06-.82.12-1.6.58-3.01.29-4.85,0-.06.03-.1.03-.16-.03-.95-.27-1.54-.61-1.55-.53,0-.79.38-.65.97.4,1.67,0,2.87-.14,4.23-.09.87-.37,1.62-.53,2.45-.11.57-.62.47-1.13.42-.46-.04-.74.6-1.33-.14-.21-.26,0-.85.06-1.28.1-.87.3-1.68.3-2.6,0-.39-.39-1.31-.63-1.44-.63-.35-.57.3-.62.74-.09.98-.26,1.93-.28,2.95-.03,1.63-1.33,1.99-1.96,3.02-.07.11-.61-.06-.78-.25-.18-.19-.27-.66-.22-.87.12-.51.34-.94.53-1.39.08-.18.28-.3.25-.52-.07-.58.35-1.23-.22-1.68-.72-.57-.81.31-.97.72-.28.68-.35,1.51-.57,2.24-.42,1.39-1.46,2-2.98,1.97-.19,0-.47-.21-.7-.32.05-.14.08-.32.17-.41,1.27-1.27,1.6-3.3,1.75-5.43.15-2.04.16-4.16.22-6.26.02-.79-.02-1.62,0-2.42.04-1.6-.29-3.35-.55-5.09-.34-2.24-1.17-4.55-1.79-6.84-.59-2.16-1.47-4.33-2.63-6.53-.46-.88-.32-1.19.37-.9,2.29.67,4.57,1.24,6.89,2.02,2.2.74,4.39,1.48,6.57,2.1,2.04.58,4.16,1.55,6.23,2.25,1.55.53,3.06.81,4.61,1.36,3.26,1.14,6.39,1.53,9.78,3.36,1.2.65,1.17.61,1.43,1.96.55,2.89.84,5.68.89,8.35.02,1.21-.16,2.31-.28,3.45-.01.11-.25.09-.38.13-.05-.16-.12-.33-.13-.47-.04-.94-.01-1.85-.12-2.82-.29-2.71-.88-5.52-1.89-8.44-.12-.35-.35-.71-.52-1.06-.04.32-.17.61-.11.97.17,1.06.39,2.14.63,3.23.69,3.19,1.02,6.21.65,8.91-.17,1.22.06,2.68-.43,3.71-.12.26-.13.65-.34.8-.31.22-.75.29-1.14.42-.09-.53-.35-1.19-.24-1.56.6-2.02.41-4.47.28-6.89-.02-.41-.1-.85-.22-1.3-.06-.21-.29-.47-.44-.7-.11.12-.25.21-.33.35-.42.74-.11,1.91,0,2.92.12,1.12.07,2.1-.04,3.07-.11,1.03-.14,2.12-.29,3.12-.08.52-.25,1.03-.56,1.33-.17.16-.73-.11-1.11-.19-.09-.36-.26-.78-.25-1.08.05-.95.28-1.81.24-2.8-.06-1.51-.03-2.99-.33-4.63-.27-1.48-.12-2.81-.23-4.25-.04-.59-.27-1.27-.43-1.91-.03-.11-.16-.25-.24-.37-.03.09-.07.17-.08.28-.18,1.34-.14,2.8.08,4.33.35,2.55.15,4.8.07,7.11-.04,1.02-.27,1.92-.3,2.94-.02.59-.28.85-.73.94-.27.05-.62-.04-.93-.07-.1-.36-.27-.75-.29-1.06-.08-1.47.15-2.77,0-4.3-.1-1.03.33-1.85.2-2.96-.02-.15-.16-.42-.28-.53-.15-.13-.45-.24-.5-.17-.18.24-.39.5-.4.87-.02,1.95.14,4-.24,5.74-.16.71-.27,1.47-.54,2.09-.19.43-.57.71-.96.94-.16.09-.56-.15-.85-.24-.03-.28-.11-.57-.09-.82.13-2.29.07-4.67-.21-7.16-.01-.12-.02-.28-.09-.37-.19-.24-.41-.48-.64-.66-.05-.04-.26.14-.26.29,0,.52.04,1.05.12,1.61.21,1.44.13,2.7-.19,3.84-.2.72-.13,1.66-.35,2.36-.2.62-.63,1.06-1.01,1.52-.09.1-.44,0-.65-.15-.11-.07-.25-.49-.24-.66M29.97,5.13s-.05-.02-.08-.03c.14.04.2.05.08.03M54.13,14.67c.47.2.95,1,1.03,1.52.25,1.64-.13,2.91-.28,4.31-.02.17-.23.23-.35.34-.1-.19-.21-.39-.28-.58-.08-.2-.13-.4-.19-.6-.06-.03-.11-.06-.17-.08-.08-1.41-.16-2.82-.22-4.23-.02-.39-.09-.92.47-.68M37.64,35.52c.2.04.39.11.55.24.63-.33,1.38-.37,2.23-.18.19-.33.67-.39,1.11-.39.9,0,1.84.11,2.77.17.06,0,.13,0,.19.01-2.31.89-4.62,1.77-6.93,2.64l.08-2.48ZM84.02,29.53c-1.52-1.97-4.01-3.02-6.48-3.29-2.48-.27-4.97.17-7.4.7-5.72,1.26-11.28,3.07-16.78,5.07.37-1.34,2.07-8.38,2.51-11.02.29-1.77.76-6.5-.2-7.48-.95-.97-5.68-1.91-11.55-4.02-1.59-.41-3.17-.73-4.79-1.39-1.76-.72-3.33-.66-5.14-1.69-.47-.27-4.64-1.39-5.99-1.84-.05-.02-.11-.03-.16-.05-3.81-.86-7.71-2.06-11.74-4-.33-.16-.66-.34-.98-.51.09,1.41.23,2.78.67,4.11.13.44.22.85.26,1.21.56.75,1.03,1.62,1.34,2.6.18.56.34,1.11.49,1.65,1.06,2.79,1.78,5.51,1.76,8.01,0,.02-.01.04-.02.06.08,1.48.02,2.87-.14,4.2.02.11.05.21.07.32.42,2.07.4,3.87.3,5.66,0,.11-.1.17-.19.23-.01,1.58-.38,2.96-1.15,4.13,0,.01-.02.02-.03.03.01,1.16.06,2.34-.38,3.25-.16.33.2,1.1.24,1.64,0,.09-.03.16-.09.22.66.33,1.34.73,1.96,1.08.34.19,1.48-.07,1.89-.09.89-.05,1.76-.29,2.63-.43.32-.05,8.39-1.67,11.02-2.13l-.44,3.02c-6.44,2.35-13.08,4.46-19.86,5.71-3.41.63-6.85,1.04-10.31,1.15-.86.03-1.73.04-2.6.02-.62,0-1.58-.24-2.14.09-1.02.58-.45,2.68-.23,3.54.41,1.56,1.2,3.01,2.21,4.26,1.72,2.12,4.04,3.68,6.42,5.01,11.15,6.24,24.67,8.13,37.11,5.17-.02-.51,9.41-.76,19.79-4.88.43-.17.88-.25,1.29-.47,10.02-5.46,19.5-22.23,18.26-25.97-.71-2.14-1.41-2.86-1.41-2.86"/>
</svg>