<?xml version="1.0" encoding="UTF-8"?>
<svg id="Layer_1" data-name="Layer 1" xmlns="http://www.w3.org/2000/svg" viewBox="0 0 219.6 59.73">
  <defs>
    <style>
      .cls-1 {
        fill: #62cbca;
      }

      .cls-1, .cls-2 {
        stroke-width: 0px;
      }

      .cls-2 {
        fill: #b1b3b5;
      }
    </style>
  </defs>
  <path class="cls-2" d="M65.57,44.37c1.06,0,2.05.2,2.98.6.92.4,1.74.95,2.45,1.66l-1.81,1.81c-1-1-2.21-1.5-3.61-1.5-.71,0-1.37.13-1.99.4-.62.27-1.16.63-1.63,1.1-.46.46-.83,1.01-1.11,1.63-.27.62-.41,1.28-.41,1.99s.14,1.37.41,1.99c.27.62.64,1.16,1.1,1.63.46.46,1,.83,1.63,1.1.63.27,1.29.4,2,.4,1.39,0,2.59-.49,3.61-1.48l1.81,1.79c-.71.71-1.52,1.26-2.45,1.66-.92.4-1.91.6-2.98.6s-2.06-.2-2.99-.61c-.93-.4-1.75-.95-2.45-1.65-.7-.69-1.25-1.5-1.66-2.43-.41-.93-.61-1.93-.61-2.99s.2-2.02.61-2.95c.41-.94.96-1.75,1.66-2.46.7-.7,1.52-1.25,2.45-1.66.93-.41,1.93-.61,2.99-.61"/>
  <path class="cls-2" d="M83.92,46.94c-1.4,0-2.61.5-3.63,1.5-.99,1-1.48,2.21-1.48,3.61s.49,2.61,1.48,3.63c1.02.99,2.23,1.48,3.63,1.48s2.6-.49,3.61-1.48c1-1.02,1.5-2.23,1.5-3.63s-.5-2.6-1.5-3.61c-1-1-2.21-1.5-3.61-1.5M83.92,44.37c2.12,0,3.93.75,5.42,2.26,1.52,1.5,2.28,3.31,2.28,5.42s-.76,3.95-2.28,5.42c-1.49,1.5-3.3,2.26-5.42,2.26s-3.93-.75-5.42-2.26c-1.5-1.49-2.26-3.3-2.26-5.42s.75-3.92,2.26-5.42c1.48-1.5,3.28-2.26,5.42-2.26"/>
  <path class="cls-2" d="M109.15,44.37v2.57h-7.68v5.09h7.68v2.59h-7.68v5.11h-2.55v-15.36h10.22Z"/>
  <path class="cls-2" d="M126.67,44.37v2.57h-7.68v5.09h7.68v2.59h-7.68v5.11h-2.55v-15.36h10.22Z"/>
  <path class="cls-2" d="M144.2,44.37v2.57h-7.68v3.85h7.68v2.54h-7.68v3.83h7.68v2.57h-10.22v-15.36h10.22Z"/>
  <path class="cls-2" d="M161.72,44.37v2.57h-7.68v3.85h7.68v2.54h-7.68v3.83h7.68v2.57h-10.22v-15.36h10.22Z"/>
  <path class="cls-1" d="M27.97,33.55h-11.2l-1.38-.05-1.38-.15-1.33-.3-1.33-.39-1.28-.49-1.28-.64-1.18-.69-1.13-.84-1.04-.84-.99-.99-.89-1.09-.79-1.13-.74-1.18-.59-1.23-.49-1.28-.44-1.33-.25-1.38-.2-1.38-.05-1.38.05-1.38.2-1.38.25-1.33.44-1.33.49-1.28.59-1.23.74-1.23.79-1.13.89-1.04.99-.99,1.04-.89,1.13-.84,1.18-.69,1.28-.59,1.28-.49,1.33-.39,1.33-.3,1.38-.2L16.78,0h11.2v2.22h-11.2l-1.28.1-1.28.15-1.28.3-1.23.44-1.18.49-1.18.59-1.09.74-1.04.79-.94.94-.84.99-.79,1.04-.64,1.13-.59,1.18-.44,1.18-.35,1.28-.25,1.28-.1,1.28v1.28l.1,1.33.25,1.28.35,1.23.44,1.23.59,1.18.64,1.13.79,1.04.84.99.94.89,1.04.79,1.09.74,1.18.64,1.18.49,1.23.39,1.28.3,1.28.2,1.28.05h8.98v-2.22h-8.98l-1.18-.1-1.23-.15-1.13-.3-1.13-.39-1.13-.54-.99-.59-.99-.74-.89-.84-.84-.89-.69-.94-.64-1.04-.49-1.09-.44-1.13-.25-1.18-.2-1.18-.05-1.23.05-1.18.2-1.18.25-1.18.44-1.13.49-1.09.64-1.04.69-.99.84-.89.89-.84.99-.69.99-.59,1.13-.54,1.13-.39,1.13-.3,1.23-.2,1.18-.05h11.2v6.71h-11.2l-.79.05-.84.2-.79.3-.74.44-.64.49-.54.64-.49.69-.35.74-.25.79-.15.84v.84l.15.84.25.79.35.74.49.69.54.59.64.54.74.39.79.3.84.2.79.1h8.98v-2.27h-8.98l-.59-.05-.59-.15-.59-.3-.49-.35-.39-.49-.35-.49-.2-.59-.15-.64v-.59l.15-.59.2-.59.35-.54.39-.44.49-.39.59-.25.59-.15.59-.1h11.2v2.22h-11.2l-.35.1-.35.2-.3.3-.1.35v.39l.1.4.3.3.35.2.35.05h11.2v6.71h-11.2l-.94-.05-.94-.2-.89-.25-.89-.4-.79-.49-.74-.59-1.28-1.38-.44-.84-.39-.89-.3-.89-.15-.94-.05-.94.05-.94.15-.94.3-.89.39-.84.44-.84.64-.74.64-.64.74-.59.79-.49.89-.39.89-.3.94-.15.94-.05h8.98v-2.27h-8.98l-1.09.05-1.09.2-1.04.3-.99.4-.99.54-.89.59-.84.69-.74.79-.69.89-.54.94-.49.99-.3,1.04-.25,1.04-.1,1.09v1.09l.1,1.09.25,1.08.3,1.04.49.99.54.94.69.84.74.79.84.74.89.59.99.54.99.39,1.04.25,1.09.2,1.09.05h11.2v6.71Z"/>
  <path class="cls-1" d="M53.33,16.77l-.1-.79-.15-.79-.3-.79-.35-.69-.49-.59-.59-.59-.59-.49-.74-.39-.74-.25-.79-.2-.79-.05-.79.05-.79.2-.74.25-.69.39-.64.49-.54.59-.49.59-.39.69-.25.79-.2.79-.05.79.05.79.2.74.25.79.39.69.49.64.54.54.64.49.69.35.74.3.79.2.79.05.79-.05.79-.2.74-.3.74-.35.59-.49.59-.54.49-.64.35-.69.3-.79.15-.74.1-.79ZM55.55,16.77l-.05.94-.15.89-.35.94-.35.84-.49.84-.59.74-.69.69-.74.54-.79.49-.89.4-.89.3-.94.15-.94.05-.94-.05-.94-.15-.89-.3-.89-.4-.79-.49-.74-.54-.69-.69-.54-.74-.49-.84-.39-.84-.3-.94-.15-.89-.1-.94.1-.94.15-.94.3-.94.39-.84.49-.84.54-.74.69-.64.74-.59.79-.49.89-.4.89-.3.94-.15.94-.05.94.05.94.15.89.3.89.4.79.49.74.59.69.64.59.74.49.84.35.84.35.94.15.94.05.94ZM57.77,16.77l-.05-1.09-.15-1.04-.3-1.04-.35-.99-.49-.94-.59-.84-.64-.84-.74-.74-.84-.69-.89-.54-.94-.49-.99-.4-.99-.25-1.09-.15-1.04-.1-1.04.1-1.04.15-1.04.25-.99.4-.94.49-.89.54-.79.69-.74.74-.69.84-.54.84-.49.94-.39.99-.25,1.04-.2,1.04-.05,1.09.05,1.04.2,1.04.25,1.04.39.99.49.94.54.84.69.84.74.74.79.64.89.59.94.49.99.4,1.04.25,1.04.2,1.04.05,1.04-.05,1.09-.2.99-.25.99-.4.94-.49.89-.59.84-.64.74-.74.64-.84.59-.84.49-.94.35-.99.3-1.04.15-1.04.05-1.04ZM59.99,15.64v2.27l-.2,1.09-.25,1.13-.35,1.04-.49,1.09-.54.99-.64.94-.74.89-.79.79-.84.74-.94.64-.99.54-1.08.44-1.04.4-1.13.25-1.13.15-1.13.05-1.13-.05-1.09-.15-1.13-.25-1.08-.4-1.04-.44-.99-.54-.94-.64-.89-.74-.79-.79-.74-.89-.64-.94-.54-.99-.44-1.09-.39-1.04-.25-1.13-.15-1.09-.05-1.13.05-1.13.15-1.13.25-1.13.39-1.09.44-1.04.54-.99.64-.94.74-.89.79-.79.89-.69.94-.64.99-.59,1.04-.44,1.08-.35,1.13-.25,1.09-.2,1.13-.05,1.13.05,1.13.2,1.13.25,1.04.35,1.08.44.99.59.94.64.84.69.79.79.74.89.64.94.54.99.49,1.04.35,1.09.25,1.13.2,1.13ZM62.26,16.77l-.05-1.28-.2-1.23-.25-1.28-.39-1.18-.49-1.18-.54-1.14-.69-1.04-.79-1.04-.84-.94-.94-.84-1.04-.79-1.04-.69-1.14-.54-1.18-.49-1.23-.4-1.23-.25-1.23-.2-1.28-.05-1.23.05-1.28.2-1.23.25-1.18.4-1.18.49-1.13.54-1.08.69-.99.79-.94.84-.84.94-.79,1.04-.69,1.04-.59,1.14-.49,1.18-.35,1.18-.3,1.28-.15,1.23-.05,1.28.05,1.23.15,1.28.3,1.23.35,1.18.49,1.18.59,1.14.69,1.04.79,1.04.84.94.94.84.99.79,1.08.69,1.13.59,1.18.44,1.18.4,1.23.3,1.28.15,1.23.05,1.28-.05,1.23-.15,1.23-.3,1.23-.4,1.18-.44,1.14-.59,1.04-.69,1.04-.79.94-.84.84-.94.79-1.04.69-1.04.54-1.14.49-1.18.39-1.18.25-1.23.2-1.28.05-1.23ZM64.48,16.77l-.05,1.33-.15,1.43-.3,1.33-.39,1.33-.54,1.28-.59,1.23-.69,1.23-.79,1.09-.94,1.09-.99.99-1.04.89-1.14.79-1.18.69-1.23.64-1.28.49-1.33.39-1.38.3-1.38.15-1.38.1-1.38-.1-1.38-.15-1.33-.3-1.33-.39-1.28-.49-1.28-.64-1.18-.69-1.08-.79-1.09-.89-.99-.99-.89-1.09-.79-1.09-.74-1.23-.59-1.23-.49-1.28-.39-1.33-.3-1.33-.2-1.43-.05-1.33.05-1.38.2-1.38.3-1.38.39-1.33.49-1.28.59-1.23.74-1.18.79-1.13.89-1.09.99-.99,1.09-.89,1.08-.79,1.18-.74,1.28-.59,1.28-.49,1.33-.39,1.33-.3,1.38-.15L47.71,0l1.38.05,1.38.15,1.38.3,1.33.39,1.28.49,1.23.59,1.18.74,1.14.79,1.04.89.99.99.94,1.09.79,1.13.69,1.18.59,1.23.54,1.28.39,1.33.3,1.38.15,1.38.05,1.38Z"/>
  <path class="cls-1" d="M135.68,33.55h-7.3l-1.92-4.49h-15.44l-1.92,4.49h-7.3L116.29,0h4.89l10.61,24.62h-21.26l8.19-19,6.32,14.51h-7.7l1.38-3.26.44,1.04h2.47l-2.91-6.66-4.79,11.1h14.51l-8.73-20.13h-1.92v.05l-12.63,29.01h2.47l1.93-4.44h18.4l1.92,4.44h2.42l-1.92-4.44h2.42l2.91,6.71Z"/>
  <path class="cls-1" d="M161.53,33.55h-11.2l-1.38-.05-1.38-.15-1.33-.3-1.33-.39-1.28-.49-1.28-.64-1.18-.69-1.13-.84-1.04-.84-.99-.99-.89-1.09-.79-1.13-.74-1.18-.59-1.23-.49-1.28-.44-1.33-.25-1.38-.2-1.38-.05-1.38.05-1.38.2-1.38.25-1.33.44-1.33.49-1.28.59-1.23.74-1.23.79-1.13.89-1.04.99-.99,1.04-.89,1.13-.84,1.18-.69,1.28-.59,1.28-.49,1.33-.39,1.33-.3,1.38-.2L150.33,0h11.2v2.22h-11.2l-1.28.1-1.28.15-1.28.3-1.23.44-1.18.49-1.18.59-1.09.74-1.04.79-.94.94-.84.99-.79,1.04-.64,1.13-.59,1.18-.44,1.18-.35,1.28-.25,1.28-.1,1.28v1.28l.1,1.33.25,1.28.35,1.23.44,1.23.59,1.18.64,1.13.79,1.04.84.99.94.89,1.04.79,1.09.74,1.18.64,1.18.49,1.23.39,1.28.3,1.28.2,1.28.05h8.98v-2.22h-8.98l-1.18-.1-1.23-.15-1.14-.3-1.13-.39-1.13-.54-.99-.59-.99-.74-.89-.84-.84-.89-.69-.94-.64-1.04-.49-1.09-.44-1.13-.25-1.18-.2-1.18-.05-1.23.05-1.18.2-1.18.25-1.18.44-1.13.49-1.09.64-1.04.69-.99.84-.89.89-.84.99-.69.99-.59,1.13-.54,1.13-.39,1.14-.3,1.23-.2,1.18-.05h11.2v6.71h-11.2l-.79.05-.84.2-.79.3-.74.44-.64.49-.54.64-.49.69-.35.74-.25.79-.15.84v.84l.15.84.25.79.35.74.49.69.54.59.64.54.74.39.79.3.84.2.79.1h8.98v-2.27h-8.98l-.59-.05-.59-.15-.59-.3-.49-.35-.39-.49-.35-.49-.2-.59-.15-.64v-.59l.15-.59.2-.59.35-.54.39-.44.49-.39.59-.25.59-.15.59-.1h11.2v2.22h-11.2l-.35.1-.35.2-.3.3-.1.35v.39l.1.4.3.3.35.2.35.05h11.2v6.71h-11.2l-.94-.05-.94-.2-.89-.25-.89-.4-.79-.49-.74-.59-1.28-1.38-.44-.84-.39-.89-.3-.89-.15-.94-.05-.94.05-.94.15-.94.3-.89.39-.84.44-.84.64-.74.64-.64.74-.59.79-.49.89-.39.89-.3.94-.15.94-.05h8.98v-2.27h-8.98l-1.09.05-1.09.2-1.04.3-.99.4-.99.54-.89.59-.84.69-.74.79-.69.89-.54.94-.49.99-.3,1.04-.25,1.04-.1,1.09v1.09l.1,1.09.25,1.08.3,1.04.49.99.54.94.69.84.74.79.84.74.89.59.99.54.99.39,1.04.25,1.09.2,1.09.05h11.2v6.71Z"/>
  <path class="cls-1" d="M191.08,22.35v11.2h-24.62V0h11.2v2.22h-8.93v29.11h20.13v-6.71h-13.47V6.71h-2.22v20.13h13.42v2.22h-15.64V4.49h6.71v17.86h13.42Z"/>
  <path class="cls-1" d="M219.6,33.55h-24.57v-15.64h22.35v-2.27h-22.35V0h24.57v6.71h-17.91v2.27h17.91v2.22h-20.13v-6.71h17.91v-2.27h-20.13v11.2h22.35v6.71h-22.35v11.15h20.13v-2.22h-17.91v-6.71h20.13v2.27h-17.91v2.22h17.91v6.71Z"/>
  <rect class="cls-1" x="46.39" y="9.94" width="2.64" height="12.41"/>
  <path class="cls-1" d="M69.82,31.3V2.24h17.86l.94.05.94.2.89.25.89.39.79.49.74.59.69.64.54.74.49.84.4.84.3.94.2.89.05.94-.05.94-.2.99-.3.89-.4.84-.49.84-.54.74-.69.64-.74.59-.79.49-.89.4-.89.25-.94.2-.94.05h-13.42V6.69h13.42l.64.1.59.15.54.3.49.35.44.49.3.49.2.59.15.59v.64l-.15.59-.2.59-.3.54-.44.44-.49.35-.54.3-.59.15-.64.05h-8.93v-2.22h8.93l.39-.05.35-.2.25-.3.1-.4v-.34l-.1-.4-.25-.3-.35-.2-.39-.05h-11.15v6.71h11.15l.84-.05.79-.2.79-.3.74-.44.64-.49.59-.64.44-.69.39-.74.2-.79.15-.84v-.84l-.15-.84-.2-.79-.39-.74-.44-.69-.59-.64-.64-.49-.74-.4-.79-.35-.79-.15-.84-.1h-15.64v15.69h15.64l1.09-.1,1.09-.15,1.04-.3,1.04-.44.94-.49.89-.59.84-.69.79-.79.64-.89.54-.94.44-.99.39-1.04.2-1.09.15-1.04v-1.09l-.15-1.13-.2-1.04-.39-1.04-.44-.99-.54-.94-.64-.84-.79-.79-.84-.74-.89-.59-.94-.54-1.04-.4-1.04-.3-1.09-.15-1.09-.05h-20.08v33.5h2.23v-2.22h-.01Z"/>
  <path class="cls-1" d="M99.96,33.52l-9.03-11.15h-18.9v6.71h18.6l-1.83-2.27h-14.55v-2.22h15.64l5.38,6.71h-23.24v2.22h27.93Z"/>
</svg>