<?xml version="1.0" encoding="UTF-8"?>
<svg id="Layer_1" data-name="Layer 1" xmlns="http://www.w3.org/2000/svg" viewBox="0 0 102.06 59.15">
  <defs>
    <style>
      .cls-1 {
        fill: #62cbca;
        stroke-width: 0px;
      }
    </style>
  </defs>
  <path class="cls-1" d="M49.32,59.15h-19.75l-2.44-.09-2.43-.26-2.35-.52-2.35-.7-2.26-.87-2.26-1.13-2.09-1.22-2-1.48-1.83-1.48-1.74-1.74-1.57-1.91-1.39-2-1.3-2.09-1.04-2.18-.87-2.26-.78-2.35-.43-2.44-.35-2.43-.09-2.44.09-2.44.35-2.44.43-2.35.78-2.35.87-2.26,1.04-2.18,1.3-2.17,1.39-2,1.57-1.83,1.74-1.74,1.83-1.57,2-1.48,2.09-1.22,2.26-1.04,2.26-.87,2.35-.7,2.35-.52,2.43-.35L29.58,0h19.75v3.91h-19.75l-2.26.17-2.26.26-2.26.52-2.17.78-2.09.87-2.09,1.04-1.91,1.3-1.83,1.39-1.65,1.65-1.48,1.74-1.39,1.83-1.13,2-1.04,2.09-.78,2.09-.61,2.26-.44,2.26-.17,2.26v2.26l.17,2.35.44,2.26.61,2.18.78,2.17,1.04,2.09,1.13,2,1.39,1.83,1.48,1.74,1.65,1.57,1.83,1.39,1.91,1.3,2.09,1.13,2.09.87,2.17.7,2.26.52,2.26.35,2.26.09h15.83v-3.91h-15.83l-2.09-.17-2.18-.26-2-.52-2-.7-2-.96-1.74-1.04-1.74-1.3-1.57-1.48-1.48-1.57-1.22-1.65-1.13-1.83-.87-1.91-.78-2-.43-2.09-.35-2.09-.09-2.17.09-2.09.35-2.09.43-2.09.78-2,.87-1.91,1.13-1.83,1.22-1.74,1.48-1.57,1.57-1.48,1.74-1.22,1.74-1.04,2-.96,2-.7,2-.52,2.18-.35,2.09-.09h19.75v11.83h-19.75l-1.39.09-1.48.35-1.39.52-1.3.78-1.13.87-.96,1.13-.87,1.22-.61,1.3-.44,1.39-.26,1.48v1.48l.26,1.48.44,1.39.61,1.3.87,1.22.96,1.04,1.13.96,1.3.7,1.39.52,1.48.35,1.39.17h15.83v-4h-15.83l-1.04-.09-1.04-.26-1.04-.52-.87-.61-.7-.87-.61-.87-.35-1.04-.26-1.13v-1.04l.26-1.04.35-1.04.61-.96.7-.78.87-.7,1.04-.43,1.04-.26,1.04-.17h19.75v3.91h-19.75l-.61.17-.61.35-.52.52-.17.61v.7l.17.7.52.52.61.35.61.09h19.75v11.83h-19.75l-1.65-.09-1.65-.35-1.57-.43-1.57-.7-1.39-.87-1.31-1.04-1.13-1.22-1.13-1.22-.78-1.48-.7-1.57-.52-1.57-.26-1.65-.09-1.65.09-1.65.26-1.65.52-1.57.7-1.48.78-1.48,1.13-1.3,1.13-1.13,1.31-1.04,1.39-.87,1.57-.7,1.57-.52,1.65-.26,1.65-.09h15.83v-4h-15.83l-1.91.09-1.91.35-1.83.52-1.74.7-1.74.96-1.57,1.04-1.48,1.22-1.3,1.39-1.22,1.57-.96,1.65-.87,1.74-.52,1.83-.43,1.83-.18,1.91v1.91l.18,1.91.43,1.91.52,1.83.87,1.74.96,1.65,1.22,1.48,1.3,1.39,1.48,1.3,1.57,1.04,1.74.96,1.74.7,1.83.43,1.91.35,1.91.09h19.75v11.83Z"/>
  <path class="cls-1" d="M52.74,0h19.75l2.44.09,2.43.26,2.35.52,2.35.7,2.26.87,2.26,1.13,2.09,1.22,2,1.48,1.83,1.48,1.74,1.74,1.57,1.91,1.39,2,1.3,2.09,1.04,2.18.87,2.26.78,2.35.43,2.44.35,2.44.09,2.44-.09,2.43-.35,2.44-.43,2.35-.78,2.35-.87,2.26-1.04,2.17-1.3,2.17-1.39,2-1.57,1.83-1.74,1.74-1.83,1.57-2,1.48-2.09,1.22-2.26,1.04-2.26.87-2.35.7-2.35.52-2.43.35-2.44.09h-19.75v-3.91h19.75l2.26-.17,2.26-.26,2.26-.52,2.17-.78,2.09-.87,2.09-1.04,1.91-1.3,1.83-1.39,1.65-1.65,1.48-1.74,1.39-1.83,1.13-2,1.04-2.09.78-2.09.61-2.26.44-2.26.17-2.26v-2.26l-.17-2.35-.44-2.26-.61-2.18-.78-2.17-1.04-2.09-1.13-2-1.39-1.83-1.48-1.74-1.65-1.57-1.83-1.39-1.91-1.3-2.09-1.13-2.09-.87-2.17-.7-2.26-.52-2.26-.35-2.26-.09h-15.83v3.91h15.83l2.09.17,2.18.26,2,.52,2,.7,2,.96,1.74,1.04,1.74,1.3,1.57,1.48,1.48,1.57,1.22,1.65,1.13,1.83.87,1.91.78,2,.43,2.09.35,2.09.09,2.18-.09,2.09-.35,2.09-.43,2.09-.78,2-.87,1.91-1.13,1.83-1.22,1.74-1.48,1.57-1.57,1.48-1.74,1.22-1.74,1.04-2,.96-2,.7-2,.52-2.18.35-2.09.09h-19.75v-11.83h19.75l1.39-.09,1.48-.35,1.39-.52,1.3-.78,1.13-.87.96-1.13.87-1.22.61-1.3.44-1.39.26-1.48v-1.48l-.26-1.48-.44-1.39-.61-1.31-.87-1.22-.96-1.04-1.13-.96-1.3-.7-1.39-.52-1.48-.35-1.39-.17h-15.83v4h15.83l1.04.09,1.04.26,1.04.52.87.61.7.87.61.87.35,1.04.26,1.13v1.04l-.26,1.04-.35,1.04-.61.96-.7.78-.87.7-1.04.43-1.04.26-1.04.17h-19.75v-3.91h19.75l.61-.17.61-.35.52-.52.17-.61v-.7l-.17-.7-.52-.52-.61-.35-.61-.09h-19.75v-11.83h19.75l1.65.09,1.65.35,1.57.43,1.57.7,1.39.87,1.31,1.04,1.13,1.22,1.13,1.22.78,1.48.7,1.57.52,1.57.26,1.65.09,1.65-.09,1.65-.26,1.65-.52,1.57-.7,1.48-.78,1.48-1.13,1.3-1.13,1.13-1.31,1.04-1.39.87-1.57.7-1.57.52-1.65.26-1.65.09h-15.83v4h15.83l1.91-.09,1.91-.35,1.83-.52,1.74-.7,1.74-.96,1.57-1.04,1.48-1.22,1.3-1.39,1.22-1.57.96-1.65.87-1.74.52-1.83.43-1.83.18-1.91v-1.91l-.18-1.91-.43-1.91-.52-1.83-.87-1.74-.96-1.65-1.22-1.48-1.3-1.39-1.48-1.3-1.57-1.04-1.74-.96-1.74-.7-1.83-.43-1.91-.35-1.91-.09h-19.75V0Z"/>
</svg>